<?xml version="1.0" encoding="UTF-8" standalone="no"?>
<!DOCTYPE svg PUBLIC "-//W3C//DTD SVG 1.1//EN"
 "http://www.w3.org/Graphics/SVG/1.1/DTD/svg11.dtd">
<!-- Generated by graphviz version 2.40.1 (20161225.0304)
 -->
<!-- Title: dependencies Pages: 1 -->
<svg width="2161pt" height="276pt"
 viewBox="0.00 0.00 2161.00 276.00" xmlns="http://www.w3.org/2000/svg" xmlns:xlink="http://www.w3.org/1999/xlink">
<g id="graph0" class="graph" transform="scale(1 1) rotate(0) translate(4 272)">
<title>dependencies</title>
<polygon fill="#ffffff" stroke="transparent" points="-4,4 -4,-272 2157,-272 2157,4 -4,4"/>
<text text-anchor="start" x="1055.5091" y="-42.4" font-family="sans-serif" font-weight="bold" font-size="14.00" fill="#000000">Legend</text>
<polygon fill="#ffffb3" stroke="transparent" points="842.5,-10 842.5,-30 862.5,-30 862.5,-10 842.5,-10"/>
<text text-anchor="start" x="866.129" y="-15.4" font-family="sans-serif" font-size="14.00" fill="#000000"> &#160;Declarations</text>
<polygon fill="#8dd3c7" stroke="transparent" points="955.5,-10 955.5,-30 975.5,-30 975.5,-10 955.5,-10"/>
<text text-anchor="start" x="979.2251" y="-15.4" font-family="sans-serif" font-size="14.00" fill="#000000"> &#160;Module</text>
<polygon fill="#80b1d3" stroke="transparent" points="1041.5,-10 1041.5,-30 1061.5,-30 1061.5,-10 1041.5,-10"/>
<text text-anchor="start" x="1065.2812" y="-15.4" font-family="sans-serif" font-size="14.00" fill="#000000"> &#160;Bootstrap</text>
<polygon fill="#fdb462" stroke="transparent" points="1138.5,-10 1138.5,-30 1158.5,-30 1158.5,-10 1138.5,-10"/>
<text text-anchor="start" x="1162.1732" y="-15.4" font-family="sans-serif" font-size="14.00" fill="#000000"> &#160;Providers</text>
<polygon fill="#fb8072" stroke="transparent" points="1234.5,-10 1234.5,-30 1254.5,-30 1254.5,-10 1234.5,-10"/>
<text text-anchor="start" x="1258.2258" y="-15.4" font-family="sans-serif" font-size="14.00" fill="#000000"> &#160;Exports</text>
<g id="clust1" class="cluster">
<title>cluster_SyntheseModule</title>
<polygon fill="none" stroke="#000000" stroke-dasharray="1,5" points="8,-70 8,-260 2145,-260 2145,-70 8,-70"/>
</g>
<g id="clust2" class="cluster">
<title>cluster_SyntheseModule_declarations</title>
<polygon fill="none" stroke="#000000" points="1211,-143 1211,-195 2137,-195 2137,-143 1211,-143"/>
</g>
<g id="clust5" class="cluster">
<title>cluster_SyntheseModule_SyntheseComponent_providers</title>
<polygon fill="none" stroke="#000000" points="1620,-78 1620,-130 1782,-130 1782,-78 1620,-78"/>
</g>
<g id="clust8" class="cluster">
<title>cluster_SyntheseModule_imports</title>
<polygon fill="none" stroke="#000000" points="1049,-143 1049,-195 1203,-195 1203,-143 1049,-143"/>
</g>
<g id="clust11" class="cluster">
<title>cluster_SyntheseModule_providers</title>
<polygon fill="none" stroke="#000000" points="16,-143 16,-195 1041,-195 1041,-143 16,-143"/>
</g>
<!-- ModalInfoObsComponent -->
<g id="node1" class="node">
<title>ModalInfoObsComponent</title>
<polygon fill="#ffffb3" stroke="#000000" points="2128.7548,-187 1965.2452,-187 1965.2452,-151 2128.7548,-151 2128.7548,-187"/>
<text text-anchor="middle" x="2047" y="-164.8" font-family="Times,serif" font-size="14.00" fill="#000000">ModalInfoObsComponent</text>
</g>
<!-- SyntheseModule -->
<g id="node6" class="node">
<title>SyntheseModule</title>
<polygon fill="#8dd3c7" stroke="#000000" points="1181.0968,-252 1178.0968,-256 1157.0968,-256 1154.0968,-252 1070.9032,-252 1070.9032,-216 1181.0968,-216 1181.0968,-252"/>
<text text-anchor="middle" x="1126" y="-229.8" font-family="Times,serif" font-size="14.00" fill="#000000">SyntheseModule</text>
</g>
<!-- ModalInfoObsComponent&#45;&gt;SyntheseModule -->
<g id="edge1" class="edge">
<title>ModalInfoObsComponent&#45;&gt;SyntheseModule</title>
<path fill="none" stroke="#000000" d="M2047,-187.0908C2047,-210.1328 2047,-247 2047,-247 2047,-247 1191.1961,-247 1191.1961,-247"/>
<polygon fill="#000000" stroke="#000000" points="1191.1962,-243.5001 1181.1961,-247 1191.1961,-250.5001 1191.1962,-243.5001"/>
</g>
<!-- SyntheseCarteComponent -->
<g id="node2" class="node">
<title>SyntheseCarteComponent</title>
<polygon fill="#ffffb3" stroke="#000000" points="1947.1965,-187 1784.8035,-187 1784.8035,-151 1947.1965,-151 1947.1965,-187"/>
<text text-anchor="middle" x="1866" y="-164.8" font-family="Times,serif" font-size="14.00" fill="#000000">SyntheseCarteComponent</text>
</g>
<!-- SyntheseCarteComponent&#45;&gt;SyntheseModule -->
<g id="edge2" class="edge">
<title>SyntheseCarteComponent&#45;&gt;SyntheseModule</title>
<path fill="none" stroke="#000000" d="M1866,-187.2843C1866,-208.3211 1866,-240 1866,-240 1866,-240 1191.3176,-240 1191.3176,-240"/>
<polygon fill="#000000" stroke="#000000" points="1191.3177,-236.5001 1181.3176,-240 1191.3176,-243.5001 1191.3177,-236.5001"/>
</g>
<!-- SyntheseComponent -->
<g id="node3" class="node">
<title>SyntheseComponent</title>
<polygon fill="#ffffb3" stroke="#000000" points="1766.8795,-187 1635.1205,-187 1635.1205,-151 1766.8795,-151 1766.8795,-187"/>
<text text-anchor="middle" x="1701" y="-164.8" font-family="Times,serif" font-size="14.00" fill="#000000">SyntheseComponent</text>
</g>
<!-- SyntheseComponent&#45;&gt;SyntheseModule -->
<g id="edge3" class="edge">
<title>SyntheseComponent&#45;&gt;SyntheseModule</title>
<path fill="none" stroke="#000000" d="M1701,-187.1061C1701,-206.3391 1701,-234 1701,-234 1701,-234 1191.1334,-234 1191.1334,-234"/>
<polygon fill="#000000" stroke="#000000" points="1191.1335,-230.5001 1181.1334,-234 1191.1334,-237.5001 1191.1335,-230.5001"/>
</g>
<!-- SyntheseListComponent -->
<g id="node4" class="node">
<title>SyntheseListComponent</title>
<polygon fill="#ffffb3" stroke="#000000" points="1616.6582,-187 1463.3418,-187 1463.3418,-151 1616.6582,-151 1616.6582,-187"/>
<text text-anchor="middle" x="1540" y="-164.8" font-family="Times,serif" font-size="14.00" fill="#000000">SyntheseListComponent</text>
</g>
<!-- SyntheseListComponent&#45;&gt;SyntheseModule -->
<g id="edge5" class="edge">
<title>SyntheseListComponent&#45;&gt;SyntheseModule</title>
<path fill="none" stroke="#000000" d="M1540,-187.0225C1540,-204.3734 1540,-228 1540,-228 1540,-228 1191.4043,-228 1191.4043,-228"/>
<polygon fill="#000000" stroke="#000000" points="1191.4043,-224.5001 1181.4043,-228 1191.4043,-231.5001 1191.4043,-224.5001"/>
</g>
<!-- SyntheseModalDownloadComponent -->
<g id="node5" class="node">
<title>SyntheseModalDownloadComponent</title>
<polygon fill="#ffffb3" stroke="#000000" points="1445.2477,-187 1218.7523,-187 1218.7523,-151 1445.2477,-151 1445.2477,-187"/>
<text text-anchor="middle" x="1332" y="-164.8" font-family="Times,serif" font-size="14.00" fill="#000000">SyntheseModalDownloadComponent</text>
</g>
<!-- SyntheseModalDownloadComponent&#45;&gt;SyntheseModule -->
<g id="edge6" class="edge">
<title>SyntheseModalDownloadComponent&#45;&gt;SyntheseModule</title>
<path fill="none" stroke="#000000" d="M1332,-187.2396C1332,-202.5706 1332,-222 1332,-222 1332,-222 1191.2042,-222 1191.2042,-222"/>
<polygon fill="#000000" stroke="#000000" points="1191.2043,-218.5001 1181.2042,-222 1191.2042,-225.5001 1191.2043,-218.5001"/>
</g>
<!-- MapListService -->
<g id="node7" class="node">
<title>MapListService</title>
<ellipse fill="#fdb462" stroke="#000000" cx="1701" cy="-104" rx="72.9276" ry="18"/>
<text text-anchor="middle" x="1701" y="-99.8" font-family="Times,serif" font-size="14.00" fill="#000000">MapListService</text>
</g>
<!-- MapListService&#45;&gt;SyntheseComponent -->
<g id="edge4" class="edge">
<title>MapListService&#45;&gt;SyntheseComponent</title>
<path fill="none" stroke="#000000" d="M1701,-122.1061C1701,-122.1061 1701,-140.991 1701,-140.991"/>
<polygon fill="#000000" stroke="#000000" points="1697.5001,-140.9909 1701,-150.991 1704.5001,-140.991 1697.5001,-140.9909"/>
</g>
<!-- GN2CommonModule -->
<g id="node8" class="node">
<title>GN2CommonModule</title>
<polygon fill="#8dd3c7" stroke="#000000" points="1195.3809,-187 1192.3809,-191 1171.3809,-191 1168.3809,-187 1056.6191,-187 1056.6191,-151 1195.3809,-151 1195.3809,-187"/>
<text text-anchor="middle" x="1126" y="-164.8" font-family="Times,serif" font-size="14.00" fill="#000000">GN2CommonModule</text>
</g>
<!-- GN2CommonModule&#45;&gt;SyntheseModule -->
<g id="edge7" class="edge">
<title>GN2CommonModule&#45;&gt;SyntheseModule</title>
<path fill="none" stroke="#000000" d="M1126,-187.1061C1126,-187.1061 1126,-205.991 1126,-205.991"/>
<polygon fill="#000000" stroke="#000000" points="1122.5001,-205.9909 1126,-215.991 1129.5001,-205.991 1122.5001,-205.9909"/>
</g>
<!-- DynamicFormService -->
<g id="node9" class="node">
<title>DynamicFormService</title>
<ellipse fill="#fdb462" stroke="#000000" cx="937" cy="-169" rx="96.1266" ry="18"/>
<text text-anchor="middle" x="937" y="-164.8" font-family="Times,serif" font-size="14.00" fill="#000000">DynamicFormService</text>
</g>
<!-- DynamicFormService&#45;&gt;SyntheseModule -->
<g id="edge8" class="edge">
<title>DynamicFormService&#45;&gt;SyntheseModule</title>
<path fill="none" stroke="#000000" d="M937,-187.2396C937,-202.5706 937,-222 937,-222 937,-222 1060.8253,-222 1060.8253,-222"/>
<polygon fill="#000000" stroke="#000000" points="1060.8253,-225.5001 1070.8253,-222 1060.8253,-218.5001 1060.8253,-225.5001"/>
</g>
<!-- MapService -->
<g id="node10" class="node">
<title>MapService</title>
<ellipse fill="#fdb462" stroke="#000000" cx="765" cy="-169" rx="57.8829" ry="18"/>
<text text-anchor="middle" x="765" y="-164.8" font-family="Times,serif" font-size="14.00" fill="#000000">MapService</text>
</g>
<!-- MapService&#45;&gt;SyntheseModule -->
<g id="edge9" class="edge">
<title>MapService&#45;&gt;SyntheseModule</title>
<path fill="none" stroke="#000000" d="M765,-187.0225C765,-204.3734 765,-228 765,-228 765,-228 1060.7789,-228 1060.7789,-228"/>
<polygon fill="#000000" stroke="#000000" points="1060.7789,-231.5001 1070.7789,-228 1060.7789,-224.5001 1060.7789,-231.5001"/>
</g>
<!-- SyntheseFormService -->
<g id="node11" class="node">
<title>SyntheseFormService</title>
<ellipse fill="#fdb462" stroke="#000000" cx="594" cy="-169" rx="95.5645" ry="18"/>
<text text-anchor="middle" x="594" y="-164.8" font-family="Times,serif" font-size="14.00" fill="#000000">SyntheseFormService</text>
</g>
<!-- SyntheseFormService&#45;&gt;SyntheseModule -->
<g id="edge10" class="edge">
<title>SyntheseFormService&#45;&gt;SyntheseModule</title>
<path fill="none" stroke="#000000" d="M594,-187.1061C594,-206.3391 594,-234 594,-234 594,-234 1060.8215,-234 1060.8215,-234"/>
<polygon fill="#000000" stroke="#000000" points="1060.8216,-237.5001 1070.8215,-234 1060.8215,-230.5001 1060.8216,-237.5001"/>
</g>
<!-- SyntheseStoreService -->
<g id="node12" class="node">
<title>SyntheseStoreService</title>
<ellipse fill="#fdb462" stroke="#000000" cx="385" cy="-169" rx="95.4811" ry="18"/>
<text text-anchor="middle" x="385" y="-164.8" font-family="Times,serif" font-size="14.00" fill="#000000">SyntheseStoreService</text>
</g>
<!-- SyntheseStoreService&#45;&gt;SyntheseModule -->
<g id="edge11" class="edge">
<title>SyntheseStoreService&#45;&gt;SyntheseModule</title>
<path fill="none" stroke="#000000" d="M385,-187.2843C385,-208.3211 385,-240 385,-240 385,-240 1060.9099,-240 1060.9099,-240"/>
<polygon fill="#000000" stroke="#000000" points="1060.91,-243.5001 1070.9099,-240 1060.9099,-236.5001 1060.91,-243.5001"/>
</g>
<!-- TaxonAdvancedStoreService -->
<g id="node13" class="node">
<title>TaxonAdvancedStoreService</title>
<ellipse fill="#fdb462" stroke="#000000" cx="148" cy="-169" rx="124.3819" ry="18"/>
<text text-anchor="middle" x="148" y="-164.8" font-family="Times,serif" font-size="14.00" fill="#000000">TaxonAdvancedStoreService</text>
</g>
<!-- TaxonAdvancedStoreService&#45;&gt;SyntheseModule -->
<g id="edge12" class="edge">
<title>TaxonAdvancedStoreService&#45;&gt;SyntheseModule</title>
<path fill="none" stroke="#000000" d="M148,-187.0908C148,-210.1328 148,-247 148,-247 148,-247 1060.6163,-247 1060.6163,-247"/>
<polygon fill="#000000" stroke="#000000" points="1060.6163,-250.5001 1070.6163,-247 1060.6163,-243.5001 1060.6163,-250.5001"/>
</g>
</g>
</svg>
